HIERARCHY
ROOT Hips
{
	OFFSET	0.00	0.00	0.00
	CHANNELS 6 Xposition Yposition Zposition Zrotation Xrotation Yrotation
	JOINT Spine
	{
		OFFSET	 0.000000	 0.059888	 0.006666
		CHANNELS 3 Zrotation Xrotation Yrotation
		JOINT Chest
		{
			OFFSET	 0.000000	 0.125681	-0.015911
			CHANNELS 3 Zrotation Xrotation Yrotation
			JOINT UpperChest
			{
				OFFSET	 0.000000	 0.122768	-0.001652
				CHANNELS 3 Zrotation Xrotation Yrotation
				JOINT Neck
				{
					OFFSET	 0.000000	 0.155865	 0.008735
					CHANNELS 3 Zrotation Xrotation Yrotation
					JOINT Head
					{
						OFFSET	 0.000000	 0.095969	-0.000410
						CHANNELS 3 Zrotation Xrotation Yrotation
						JOINT LeftEye
						{
							OFFSET	 0.015267	 0.059218	 0.021494
							CHANNELS 3 Zrotation Xrotation Yrotation
							End Site
							{
								OFFSET	 0.015267	 0.059218	 0.021494
							}
						}
						JOINT RightEye
						{
							OFFSET	-0.015267	 0.059218	 0.021494
							CHANNELS 3 Zrotation Xrotation Yrotation
							End Site
							{
								OFFSET	-0.015267	 0.059218	 0.021494
							}
						}
					}
				}
				JOINT LeftShoulder
				{
					OFFSET	 0.025383	 0.124268	 0.007699
					CHANNELS 3 Zrotation Xrotation Yrotation
					JOINT LeftUpperArm
					{
						OFFSET	 0.136062	 0.000000	 0.000000
						CHANNELS 3 Zrotation Xrotation Yrotation
						JOINT LeftLowerArm
						{
							OFFSET	 0.225446	 0.000000	 0.000000
							CHANNELS 3 Zrotation Xrotation Yrotation
							JOINT LeftHand
							{
								OFFSET	 0.256325	 0.000003	 0.000015
								CHANNELS 3 Zrotation Xrotation Yrotation
								JOINT LeftIndexProximal
								{
									OFFSET	 0.074229	 0.008101	 0.022282
									CHANNELS 3 Zrotation Xrotation Yrotation
									JOINT LeftIndexIntermediate
									{
										OFFSET	 0.037712	 0.000000	-0.000001
										CHANNELS 3 Zrotation Xrotation Yrotation
										JOINT LeftIndexDistal
										{
											OFFSET	 0.023218	 0.000022	 0.000021
											CHANNELS 3 Zrotation Xrotation Yrotation
											End Site
											{
												OFFSET	 0.023218	 0.000022	 0.000021
											}
										}
									}
								}
								JOINT LeftLittleProximal
								{
									OFFSET	 0.069261	 0.008101	-0.033073
									CHANNELS 3 Zrotation Xrotation Yrotation
									JOINT LeftLittleIntermediate
									{
										OFFSET	 0.035643	 0.000000	 0.000000
										CHANNELS 3 Zrotation Xrotation Yrotation
										JOINT LeftLittleDistal
										{
											OFFSET	 0.020542	 0.000000	 0.000000
											CHANNELS 3 Zrotation Xrotation Yrotation
											End Site
											{
												OFFSET	 0.020542	 0.000000	 0.000000
											}
										}
									}
								}
								JOINT LeftMiddleProximal
								{
									OFFSET	 0.075240	 0.008101	 0.002320
									CHANNELS 3 Zrotation Xrotation Yrotation
									JOINT LeftMiddleIntermediate
									{
										OFFSET	 0.042007	 0.000000	 0.000000
										CHANNELS 3 Zrotation Xrotation Yrotation
										JOINT LeftMiddleDistal
										{
											OFFSET	 0.025915	 0.000000	 0.000000
											CHANNELS 3 Zrotation Xrotation Yrotation
											End Site
											{
												OFFSET	 0.025915	 0.000000	 0.000000
											}
										}
									}
								}
								JOINT LeftRingProximal
								{
									OFFSET	 0.074383	 0.008101	-0.015403
									CHANNELS 3 Zrotation Xrotation Yrotation
									JOINT LeftRingIntermediate
									{
										OFFSET	 0.038967	 0.000000	 0.000000
										CHANNELS 3 Zrotation Xrotation Yrotation
										JOINT LeftRingDistal
										{
											OFFSET	 0.022488	 0.000000	 0.000000
											CHANNELS 3 Zrotation Xrotation Yrotation
											End Site
											{
												OFFSET	 0.022488	 0.000000	 0.000000
											}
										}
									}
								}
								JOINT LeftThumbProximal
								{
									OFFSET	 0.003995	-0.010985	 0.018096
									CHANNELS 3 Zrotation Xrotation Yrotation
									JOINT LeftThumbIntermediate
									{
										OFFSET	 0.052819	-0.000008	-0.000074
										CHANNELS 3 Zrotation Xrotation Yrotation
										JOINT LeftThumbDistal
										{
											OFFSET	 0.032489	 0.000042	-0.000035
											CHANNELS 3 Zrotation Xrotation Yrotation
											End Site
											{
												OFFSET	 0.032489	 0.000042	-0.000035
											}
										}
									}
								}
							}
						}
					}
				}
				JOINT RightShoulder
				{
					OFFSET	-0.025383	 0.124268	 0.007699
					CHANNELS 3 Zrotation Xrotation Yrotation
					JOINT RightUpperArm
					{
						OFFSET	-0.136062	 0.000000	 0.000000
						CHANNELS 3 Zrotation Xrotation Yrotation
						JOINT RightLowerArm
						{
							OFFSET	-0.225446	 0.000000	 0.000000
							CHANNELS 3 Zrotation Xrotation Yrotation
							JOINT RightHand
							{
								OFFSET	-0.256325	 0.000003	 0.000015
								CHANNELS 3 Zrotation Xrotation Yrotation
								JOINT RightIndexProximal
								{
									OFFSET	-0.074229	 0.008101	 0.022282
									CHANNELS 3 Zrotation Xrotation Yrotation
									JOINT RightIndexIntermediate
									{
										OFFSET	-0.037712	 0.000000	-0.000001
										CHANNELS 3 Zrotation Xrotation Yrotation
										JOINT RightIndexDistal
										{
											OFFSET	-0.023218	 0.000022	 0.000021
											CHANNELS 3 Zrotation Xrotation Yrotation
											End Site
											{
												OFFSET	-0.023218	 0.000022	 0.000021
											}
										}
									}
								}
								JOINT RightLittleProximal
								{
									OFFSET	-0.069261	 0.008101	-0.033073
									CHANNELS 3 Zrotation Xrotation Yrotation
									JOINT RightLittleIntermediate
									{
										OFFSET	-0.035643	 0.000000	 0.000000
										CHANNELS 3 Zrotation Xrotation Yrotation
										JOINT RightLittleDistal
										{
											OFFSET	-0.020542	 0.000000	 0.000000
											CHANNELS 3 Zrotation Xrotation Yrotation
											End Site
											{
												OFFSET	-0.020542	 0.000000	 0.000000
											}
										}
									}
								}
								JOINT RightMiddleProximal
								{
									OFFSET	-0.075240	 0.008101	 0.002320
									CHANNELS 3 Zrotation Xrotation Yrotation
									JOINT RightMiddleIntermediate
									{
										OFFSET	-0.042007	 0.000000	 0.000000
										CHANNELS 3 Zrotation Xrotation Yrotation
										JOINT RightMiddleDistal
										{
											OFFSET	-0.025915	 0.000000	 0.000000
											CHANNELS 3 Zrotation Xrotation Yrotation
											End Site
											{
												OFFSET	-0.025915	 0.000000	 0.000000
											}
										}
									}
								}
								JOINT RightRingProximal
								{
									OFFSET	-0.074383	 0.008101	-0.015403
									CHANNELS 3 Zrotation Xrotation Yrotation
									JOINT RightRingIntermediate
									{
										OFFSET	-0.038967	 0.000000	 0.000000
										CHANNELS 3 Zrotation Xrotation Yrotation
										JOINT RightRingDistal
										{
											OFFSET	-0.022488	 0.000000	 0.000000
											CHANNELS 3 Zrotation Xrotation Yrotation
											End Site
											{
												OFFSET	-0.022488	 0.000000	 0.000000
											}
										}
									}
								}
								JOINT RightThumbProximal
								{
									OFFSET	-0.003995	-0.010985	 0.018096
									CHANNELS 3 Zrotation Xrotation Yrotation
									JOINT RightThumbIntermediate
									{
										OFFSET	-0.052819	-0.000008	-0.000074
										CHANNELS 3 Zrotation Xrotation Yrotation
										JOINT RightThumbDistal
										{
											OFFSET	-0.032489	 0.000042	-0.000035
											CHANNELS 3 Zrotation Xrotation Yrotation
											End Site
											{
												OFFSET	-0.032489	 0.000042	-0.000035
											}
										}
									}
								}
							}
						}
					}
				}
			}
		}
	}
	JOINT LeftUpperLeg
	{
		OFFSET	 0.087143	-0.045243	 0.001548
		CHANNELS 3 Zrotation Xrotation Yrotation
		JOINT LeftLowerLeg
		{
			OFFSET	 0.000000	-0.394432	-0.000001
			CHANNELS 3 Zrotation Xrotation Yrotation
			JOINT LeftFoot
			{
				OFFSET	 0.000000	-0.466446	 0.003058
				CHANNELS 3 Zrotation Xrotation Yrotation
				JOINT LeftToes
				{
					OFFSET	 0.000000	-0.079218	 0.140851
					CHANNELS 3 Zrotation Xrotation Yrotation
					End Site
					{
						OFFSET	 0.000000	-0.079218	 0.140851
					}
				}
			}
		}
	}
	JOINT RightUpperLeg
	{
		OFFSET	-0.087143	-0.045243	 0.001548
		CHANNELS 3 Zrotation Xrotation Yrotation
		JOINT RightLowerLeg
		{
			OFFSET	 0.000000	-0.394432	-0.000001
			CHANNELS 3 Zrotation Xrotation Yrotation
			JOINT RightFoot
			{
				OFFSET	 0.000000	-0.466446	 0.003058
				CHANNELS 3 Zrotation Xrotation Yrotation
				JOINT RightToes
				{
					OFFSET	 0.000000	-0.079218	 0.140851
					CHANNELS 3 Zrotation Xrotation Yrotation
					End Site
					{
						OFFSET	 0.000000	-0.079218	 0.140851
					}
				}
			}
		}
	}
}
MOTION
Frames:    4
Frame Time: 0.01111111
 0.000000	 1.032722	 0.003576	 0.000000	 0.000000	 0.000000	 3.010137	 1.377648	-3.890837	 0.840599	 11.873750	-0.424568	 0.000006	-12.397250	 0.000004	-1.472145	 8.822167	 0.453019	 0.737335	-5.327136	-3.809111	-1.586784	 3.325456	 23.594950	 1.601073	 3.319689	-20.506190	-8.075663	-7.788888	 13.779340	-52.448280	 43.377620	-28.808760	-6.817383	-10.572980	-70.334540	 0.000430	 0.000766	 0.000632	-0.012967	 0.667629	 1.112118	-1.679194	 1.282879	 0.674526	-0.334984	 1.286472	-0.711007	 0.000005	-0.000042	 0.000001	 0.000003	 0.000000	 0.000000	 0.890204	-0.008562	-1.101182	 0.000000	-0.000008	-0.000006	 0.000003	 0.000039	-0.000013	 0.000003	 0.000039	-0.000013	 0.000000	 0.000014	 0.000004	 0.000003	 0.000000	 0.000000	-0.712572	-0.008159	 1.310742	 86.198970	 49.487950	-89.646780	-2.573035	-0.739925	 0.463022	 4.590282	-0.705078	-0.717109	-14.555370	-7.911582	-11.350900	 66.832570	 46.133220	 37.378820	 16.496070	-16.423480	 94.702900	-7.371956	 4.157920	 0.957470	 53.019210	 1.450091	 1.091712	 90.000000	 0.000000	 0.000000	 30.335830	 0.000000	 0.000000	 66.869730	 2.796152	 1.193759	 90.000000	 0.000000	 0.000000	 20.449140	 0.000000	 0.000000	 51.707890	-5.066689	-3.988630	 90.000000	 0.000000	 0.000000	 23.733290	 0.000000	 0.000000	 60.938220	-0.559471	-0.310901	 90.000000	 0.000000	 0.000000	 22.081060	 0.000000	 0.000000	-40.398270	 48.039490	 53.826120	 10.061190	 33.634610	-16.742030	-4.590279	-0.705076	 0.717109	-0.000001	-6.013633	-0.000022	 0.000001	 2.614221	-0.000018	 0.000000	-3.498952	 0.000000	 0.000000	 0.248285	 0.000000	 0.000008	-6.013632	 0.000023	-0.000009	 2.614192	-0.000003	 0.000000	-3.498953	 0.000000	 0.000000	 0.248285	 0.000000
 0.000000	 1.032722	 0.003576	 0.000000	 0.000000	 0.000000	 3.010137	 1.377648	-3.890837	 0.840599	 11.873750	-0.424568	 0.000006	-12.397250	 0.000004	-1.472145	 8.822167	 0.453019	 0.737335	-5.327135	-3.809111	-1.586784	 3.325456	 23.594950	 1.601073	 3.319689	-20.506190	-8.075663	-7.788888	 13.779340	-52.448270	 43.377630	-28.808770	-6.817388	-10.572990	-70.334550	 0.000427	 0.000767	 0.000645	-0.012967	 0.667629	 1.112118	-1.679194	 1.282879	 0.674526	-0.334984	 1.286472	-0.711007	 0.000005	-0.000042	 0.000001	 0.000003	 0.000000	 0.000000	 0.890204	-0.008562	-1.101182	 0.000000	-0.000008	-0.000006	 0.000003	 0.000039	-0.000013	 0.000003	 0.000039	-0.000013	 0.000000	 0.000014	 0.000004	 0.000003	 0.000000	 0.000000	-0.712572	-0.008159	 1.310742	 86.198970	 49.487950	-89.646780	-2.573035	-0.739925	 0.463022	 4.590282	-0.705078	-0.717109	-14.555370	-7.911582	-11.350900	 66.832570	 46.133230	 37.378810	 16.496080	-16.423480	 94.702900	-7.371963	 4.157938	 0.957464	 53.019210	 1.450091	 1.091712	 90.000000	 0.000000	 0.000000	 30.335830	 0.000000	 0.000000	 66.869730	 2.796152	 1.193759	 90.000000	 0.000000	 0.000000	 20.449140	 0.000000	 0.000000	 51.707890	-5.066689	-3.988630	 90.000000	 0.000000	 0.000000	 23.733290	 0.000000	 0.000000	 60.938220	-0.559471	-0.310901	 90.000000	 0.000000	 0.000000	 22.081060	 0.000000	 0.000000	-40.398270	 48.039490	 53.826120	 10.061190	 33.634610	-16.742030	-4.590279	-0.705076	 0.717109	-0.000001	-6.013633	-0.000022	 0.000001	 2.614220	-0.000018	 0.000000	-3.498952	 0.000000	 0.000000	 0.248285	 0.000000	 0.000008	-6.013632	 0.000023	-0.000009	 2.614192	-0.000003	 0.000000	-3.498953	 0.000000	 0.000000	 0.248285	 0.000000
 0.000000	 1.032722	 0.003576	 0.000000	 0.000000	 0.000000	 0.399506	 3.333275	 0.271575	-0.746057	 14.125430	-0.117727	 0.000006	-12.397260	 0.000004	-0.403968	 9.158331	 0.151979	 2.180326	-9.383987	-6.854494	-2.142669	 4.607205	 23.359800	 2.095182	 4.626380	-20.722830	-0.079397	-9.245229	 14.899610	-57.280110	 40.243870	-26.027130	-2.484363	-0.379395	-67.459720	 0.000416	 0.000765	 0.000623	-0.012967	 0.667629	 1.112118	-1.679194	 1.282879	 0.674526	-0.334984	 1.286472	-0.711007	 0.000005	-0.000042	 0.000001	 0.000003	 0.000000	 0.000000	 0.890204	-0.008562	-1.101182	 0.000000	-0.000008	-0.000006	 0.000003	 0.000039	-0.000013	 0.000003	 0.000039	-0.000013	 0.000000	 0.000014	 0.000004	 0.000003	 0.000000	 0.000000	-0.712572	-0.008159	 1.310742	 86.198970	 49.487950	-89.646780	-2.573035	-0.739925	 0.463022	 4.590282	-0.705078	-0.717109	-8.700706	-9.291474	-14.117810	 62.741440	 44.425130	 33.867580	 15.393110	-14.694180	 99.021060	-5.320926	 1.692830	-4.947167	 51.105870	 3.586086	 2.888662	 90.000000	 0.000000	 0.000000	 15.516390	 0.000000	 0.000000	 61.828660	 8.526021	 4.539765	 90.000000	 0.000000	 0.000000	 20.053920	 0.000000	 0.000000	 48.861000	-2.453199	-2.141351	 90.000000	 0.000000	 0.000000	 12.782060	 0.000000	 0.000000	 56.892910	 3.593639	 2.340459	 90.000000	 0.000000	 0.000000	 17.759440	 0.000000	 0.000000	-38.573380	 47.612500	 56.109550	 10.482740	 41.669330	-17.767700	-4.590279	-0.705076	 0.717109	-0.000001	-6.013633	-0.000022	 0.000001	 2.614221	-0.000018	 0.000000	-3.498952	 0.000000	 0.000000	 0.248285	 0.000000	 0.000008	-6.013632	 0.000023	-0.000009	 2.614194	-0.000003	 0.000000	-3.498953	 0.000000	 0.000000	 0.248285	 0.000000
 0.000000	 1.032722	 0.003576	 0.000000	 0.000000	 0.000000	-0.800180	 3.911770	 2.208681	-1.064782	 15.421900	 0.022419	 0.000006	-12.397260	 0.000004	-0.149616	 8.890973	 0.032321	 2.646174	-11.028000	-7.651366	-2.530136	 5.529670	 23.075540	 2.458002	 5.558720	-20.967370	 3.001798	-9.964669	 15.152800	-58.231880	 39.481990	-26.439680	-1.814118	 2.657230	-67.884470	 0.000404	 0.000764	 0.000610	-0.012967	 0.667629	 1.112118	-1.679194	 1.282879	 0.674526	-0.334984	 1.286472	-0.711007	 0.000005	-0.000042	 0.000001	 0.000003	 0.000000	 0.000000	 0.890204	-0.008562	-1.101182	 0.000000	-0.000008	-0.000006	 0.000003	 0.000039	-0.000013	 0.000003	 0.000039	-0.000013	 0.000000	 0.000014	 0.000004	 0.000003	 0.000000	 0.000000	-0.712572	-0.008159	 1.310742	 86.198970	 49.487950	-89.646780	-2.573035	-0.739925	 0.463022	 4.590282	-0.705078	-0.717109	-6.054464	-9.984917	-14.746370	 60.404320	 43.439350	 32.875270	 15.283210	-14.056940	 100.532300	-2.500946	-2.022638	-8.106719	 49.413760	-1.908540	-1.634276	 90.000000	 0.000000	 0.000000	 11.757700	 0.000000	 0.000000	 64.081840	 1.073552	 0.521665	 90.000000	 0.000000	 0.000000	 20.961290	 0.000000	 0.000000	 45.828250	-7.205185	-6.947145	 90.000000	 0.000000	 0.000000	 12.050890	 0.000000	 0.000000	 55.284100	-3.455896	-2.391553	 90.000000	 0.000000	 0.000000	 16.457560	 0.000000	 0.000000	-33.782530	 46.349750	 54.608230	 8.382221	 49.566720	-13.832420	-4.590279	-0.705076	 0.717109	-0.000001	-6.013633	-0.000022	 0.000001	 2.614221	-0.000018	 0.000000	-3.498952	 0.000000	 0.000000	 0.248285	 0.000000	 0.000008	-6.013632	 0.000023	-0.000009	 2.614196	-0.000003	 0.000000	-3.498953	 0.000000	 0.000000	 0.248285	 0.000000
